<svg version="1.2" baseProfile="tiny-ps" xmlns="http://www.w3.org/2000/svg" viewBox="0 0 3200 400" width="450" height="450">
	<title>Nuevo proyecto</title>
	<style>
		tspan { white-space:pre }
	</style>
	<path id="EXTREME DEV GAME " fill="#fb8500" aria-label="EXTREME DEV GAME"  d="M200.7 308L61.5 308Q55.8 308 53.1 305.6Q50.7 302.9 50.7 297.2L50.7 102.8Q50.7 97.1 53.1 94.7Q55.8 92 61.5 92L200.7 92Q206.4 92 208.8 94.7Q211.5 97.1 211.5 102.8L211.5 137.9Q211.5 143.6 208.8 146.3Q206.4 148.7 200.7 148.7L117.9 148.7L117.9 171.8L176.4 171.8Q182.1 171.8 184.5 174.5Q187.2 176.9 187.2 182.6L187.2 214.7Q187.2 220.4 184.5 223.1Q182.1 225.5 176.4 225.5L117.9 225.5L117.9 251.3L200.7 251.3Q206.4 251.3 208.8 254Q211.5 256.4 211.5 262.1L211.5 297.2Q211.5 302.9 208.8 305.6Q206.4 308 200.7 308ZM184.5 281L184.5 278L86.4 278L86.4 200.3L160.2 200.3L160.2 197.3L86.4 197.3L86.4 122L184.5 122L184.5 119L83.4 119L83.4 281L184.5 281ZM279.3 281L279.3 267.5Q279.3 261.2 279.9 255.5Q280.5 249.5 283.5 245.6L318.9 197L354.9 197L390 245.6Q393 249.8 393.6 255.5Q394.2 261.2 394.2 267.5L394.2 281L397.2 281L397.2 267.5Q397.2 260.9 396.6 255.2Q396 249.2 392.7 244.4L357.3 195.8L392.7 146.6Q396 141.8 396.6 136.1Q397.2 130.1 397.2 123.5L397.2 119L394.2 119L394.2 123.5Q394.2 129.8 393.6 135.5Q393 141.2 390 145.4L355.2 194L319.5 194L283.5 145.4Q280.5 141.2 279.9 135.5Q279.3 129.8 279.3 123.5L279.3 119L276.3 119L276.3 123.5Q276.3 130.1 276.9 136.1Q277.5 141.8 280.8 146.6L316.8 195.2L280.8 244.4Q277.2 249.2 276.6 255.2Q276.3 260.9 276.3 267.5L276.3 281L279.3 281ZM311.4 267.5L311.4 297.2Q311.4 302.9 308.7 305.6Q306.3 308 300.6 308L255 308Q249.3 308 246.6 305.6Q244.2 302.9 244.2 297.2L244.2 265.1Q244.2 251.3 246.6 244.4Q249 237.5 255.6 228.2L279.9 195.5L255.6 162.8Q248.7 153.5 246.3 146.6Q244.2 139.7 244.2 125.9L244.2 102.8Q244.2 97.1 246.6 94.7Q249.3 92 255 92L301.2 92Q306.9 92 309.3 94.7Q312 97.1 312 102.8L312 123.5Q312 126.5 312.3 129.8Q312.6 133.1 314.7 136.1L327.9 155Q329.4 157.4 330.9 158.9Q332.7 160.1 335.1 160.1L338.7 160.1Q341.1 160.1 342.6 158.9Q344.1 157.4 345.9 155L359.4 136.1Q361.5 133.1 361.8 129.8Q362.1 126.5 362.1 123.5L362.1 102.8Q362.1 97.1 364.5 94.7Q367.2 92 372.9 92L418.5 92Q424.2 92 426.6 94.7Q429.3 97.1 429.3 102.8L429.3 125.9Q429.3 139.7 426.9 146.6Q424.5 153.5 417.9 162.8L393.6 195.8L417.9 228.2Q424.8 237.5 426.9 244.4Q429.3 251.3 429.3 265.1L429.3 297.2Q429.3 302.9 426.6 305.6Q424.2 308 418.5 308L372.9 308Q367.2 308 364.5 305.6Q362.1 302.9 362.1 297.2L362.1 267.5Q362.1 264.5 361.8 261.2Q361.5 257.9 359.4 254.9L346.2 236Q344.4 233.3 342.9 232.1Q341.4 230.9 339 230.9L334.8 230.9Q332.4 230.9 330.9 232.1Q329.4 233.3 327.6 236L314.1 254.9Q312 257.9 311.7 261.2Q311.4 264.5 311.4 267.5ZM565.5 308L516.9 308Q511.2 308 508.5 305.6Q506.1 302.9 506.1 297.2L506.1 149.9L462 149.9Q456.3 149.9 453.6 147.5Q451.2 144.8 451.2 139.1L451.2 102.8Q451.2 97.1 453.6 94.7Q456.3 92 462 92L620.4 92Q626.1 92 628.5 94.7Q631.2 97.1 631.2 102.8L631.2 139.1Q631.2 144.8 628.5 147.5Q626.1 149.9 620.4 149.9L576.3 149.9L576.3 297.2Q576.3 302.9 573.6 305.6Q571.2 308 565.5 308ZM539.7 122L539.7 281L542.7 281L542.7 122L604.2 122L604.2 119L478.2 119L478.2 122L539.7 122ZM695.7 122L761.1 122Q777 122 784.5 130.7Q792.3 139.4 792.3 153.2L792.3 174.2Q792.3 190.7 786 199.7Q779.7 208.7 761.1 208.7L695.7 208.7L695.7 122ZM750.6 146L728.1 146L728.1 184.4L750.6 184.4Q758.4 184.4 761.1 180.5Q763.8 176.3 763.8 170.3L763.8 160.1Q763.8 154.1 761.1 150.2Q758.4 146 750.6 146ZM692.7 281L695.7 281L695.7 211.4L780.6 211.4Q797.7 211.4 805.8 218.9Q813.9 226.1 813.9 240.8L813.9 281L816.9 281L816.9 240.8Q816.9 225.2 807.9 217.1Q798.9 208.7 780.6 208.7L777.3 208.7Q788.1 205.4 791.7 196.7Q795.3 187.7 795.3 173.9L795.3 153.2Q795.3 138.5 786.9 128.9Q778.5 119 761.1 119L692.7 119L692.7 281ZM717.3 308L671.1 308Q665.4 308 662.7 305.6Q660.3 302.9 660.3 297.2L660.3 102.8Q660.3 97.1 662.7 94.7Q665.4 92 671.1 92L771 92Q804.6 92 817.2 106.1Q830.1 119.9 830.1 142.1L830.1 155.9Q830.1 168.5 826.2 177.5Q822.6 186.2 813.3 190.1Q829.5 191.9 839.4 203.3Q849.6 214.7 849.6 233.6L849.6 297.2Q849.6 302.9 846.9 305.6Q844.5 308 838.8 308L792.3 308Q786.6 308 783.9 305.6Q781.5 302.9 781.5 297.2L781.5 251.3Q781.5 244.7 778.8 241.7Q776.4 238.4 770.1 238.4L728.1 238.4L728.1 297.2Q728.1 302.9 725.4 305.6Q723 308 717.3 308ZM1033.2 308L894 308Q888.3 308 885.6 305.6Q883.2 302.9 883.2 297.2L883.2 102.8Q883.2 97.1 885.6 94.7Q888.3 92 894 92L1033.2 92Q1038.9 92 1041.3 94.7Q1044 97.1 1044 102.8L1044 137.9Q1044 143.6 1041.3 146.3Q1038.9 148.7 1033.2 148.7L950.4 148.7L950.4 171.8L1008.9 171.8Q1014.6 171.8 1017 174.5Q1019.7 176.9 1019.7 182.6L1019.7 214.7Q1019.7 220.4 1017 223.1Q1014.6 225.5 1008.9 225.5L950.4 225.5L950.4 251.3L1033.2 251.3Q1038.9 251.3 1041.3 254Q1044 256.4 1044 262.1L1044 297.2Q1044 302.9 1041.3 305.6Q1038.9 308 1033.2 308ZM1017 281L1017 278L918.9 278L918.9 200.3L992.7 200.3L992.7 197.3L918.9 197.3L918.9 122L1017 122L1017 119L915.9 119L915.9 281L1017 281ZM1185 192.5Q1179.6 192.5 1177.2 190.1Q1174.8 187.7 1169.7 179.9L1133.1 124.1Q1131.3 121.1 1128.9 120.2Q1126.5 119 1124.1 119L1119 119Q1115.1 119 1113 121.4Q1111.2 123.5 1111.2 128.3L1111.2 281L1114.2 281L1114.2 128.3Q1114.2 125.9 1115.1 124.1Q1116 122 1119 122L1123.5 122Q1125.6 122 1127.1 122.6Q1128.9 123.2 1130.7 126.2L1167.3 181.4Q1172.7 189.5 1175.4 192.5Q1178.4 195.5 1185 195.5Q1191.6 195.5 1194.3 192.5Q1197.3 189.5 1202.7 181.4L1239.3 126.2Q1241.1 123.2 1242.6 122.6Q1244.1 122 1246.2 122L1250.7 122Q1253.7 122 1254.6 124.1Q1255.8 125.9 1255.8 128.3L1255.8 281L1258.8 281L1258.8 128.3Q1258.8 123.5 1256.7 121.4Q1254.9 119 1250.7 119L1245.6 119Q1243.2 119 1240.8 120.2Q1238.7 121.1 1236.9 124.1L1200.3 179.9Q1195.2 187.7 1192.8 190.1Q1190.4 192.5 1185 192.5ZM1134.9 308L1090.2 308Q1084.5 308 1081.8 305.6Q1079.4 302.9 1079.4 297.2L1079.4 102.8Q1079.4 97.1 1081.8 94.7Q1084.5 92 1090.2 92L1138.5 92Q1143.3 92 1146.3 94.1Q1149.6 96.2 1152.3 101L1179.3 149.9Q1180.8 152.6 1181.7 153.8Q1182.9 155 1184.7 155L1187.4 155Q1189.2 155 1190.1 153.8Q1191.3 152.6 1192.8 149.9L1219.5 101Q1222.2 96.2 1225.2 94.1Q1228.5 92 1233.3 92L1281.9 92Q1287.6 92 1290 94.7Q1292.7 97.1 1292.7 102.8L1292.7 297.2Q1292.7 302.9 1290 305.6Q1287.6 308 1281.9 308L1235.7 308Q1230 308 1227.3 305.6Q1224.9 302.9 1224.9 297.2L1224.9 191.6L1207.2 224.3Q1204.5 229.4 1200.6 231.8Q1197 233.9 1191.3 233.9L1179.3 233.9Q1173.6 233.9 1169.7 231.8Q1166.1 229.4 1163.4 224.3L1145.7 191.6L1145.7 297.2Q1145.7 302.9 1143 305.6Q1140.6 308 1134.9 308ZM1484.1 308L1344.9 308Q1339.2 308 1336.5 305.6Q1334.1 302.9 1334.1 297.2L1334.1 102.8Q1334.1 97.1 1336.5 94.7Q1339.2 92 1344.9 92L1484.1 92Q1489.8 92 1492.2 94.7Q1494.9 97.1 1494.9 102.8L1494.9 137.9Q1494.9 143.6 1492.2 146.3Q1489.8 148.7 1484.1 148.7L1401.3 148.7L1401.3 171.8L1459.8 171.8Q1465.5 171.8 1467.9 174.5Q1470.6 176.9 1470.6 182.6L1470.6 214.7Q1470.6 220.4 1467.9 223.1Q1465.5 225.5 1459.8 225.5L1401.3 225.5L1401.3 251.3L1484.1 251.3Q1489.8 251.3 1492.2 254Q1494.9 256.4 1494.9 262.1L1494.9 297.2Q1494.9 302.9 1492.2 305.6Q1489.8 308 1484.1 308ZM1467.9 281L1467.9 278L1369.8 278L1369.8 200.3L1443.6 200.3L1443.6 197.3L1369.8 197.3L1369.8 122L1467.9 122L1467.9 119L1366.8 119L1366.8 281L1467.9 281ZM1709.7 308L1608.6 308Q1602.9 308 1600.2 305.6Q1597.8 302.9 1597.8 297.2L1597.8 102.8Q1597.8 97.1 1600.2 94.7Q1602.9 92 1608.6 92L1709.7 92Q1747.2 92 1765.2 107Q1783.5 122 1783.5 153.2L1783.5 246.8Q1783.5 278 1765.2 293Q1747.2 308 1709.7 308ZM1630.5 119L1630.5 281L1703.1 281Q1718.4 281 1728 278Q1737.6 274.7 1742.7 269.3Q1747.8 263.9 1749.3 256.4Q1751.1 248.9 1751.1 240.2L1751.1 160.7Q1751.1 152 1749.3 144.5Q1747.5 136.7 1742.4 131.3Q1737.3 125.6 1727.7 122.3Q1718.4 119 1703.1 119L1630.5 119ZM1633.5 122L1703.1 122Q1717.2 122 1725.9 125Q1734.9 128 1739.7 133.1Q1744.5 138.2 1746.3 145.4Q1748.1 152.6 1748.1 160.7L1748.1 240.2Q1748.1 248.3 1746.3 255.5Q1744.8 262.4 1740 267.5Q1735.2 272.3 1726.2 275.3Q1717.5 278 1703.1 278L1633.5 278L1633.5 122ZM1701.6 149.3L1665.9 149.3L1665.9 251.3L1701.6 251.3Q1708.8 251.3 1712.1 247.7Q1715.7 244.1 1715.7 236.6L1715.7 163.7Q1715.7 156.2 1712.1 152.9Q1708.8 149.3 1701.6 149.3ZM1971.6 308L1832.4 308Q1826.7 308 1824 305.6Q1821.6 302.9 1821.6 297.2L1821.6 102.8Q1821.6 97.1 1824 94.7Q1826.7 92 1832.4 92L1971.6 92Q1977.3 92 1979.7 94.7Q1982.4 97.1 1982.4 102.8L1982.4 137.9Q1982.4 143.6 1979.7 146.3Q1977.3 148.7 1971.6 148.7L1888.8 148.7L1888.8 171.8L1947.3 171.8Q1953 171.8 1955.4 174.5Q1958.1 176.9 1958.1 182.6L1958.1 214.7Q1958.1 220.4 1955.4 223.1Q1953 225.5 1947.3 225.5L1888.8 225.5L1888.8 251.3L1971.6 251.3Q1977.3 251.3 1979.7 254Q1982.4 256.4 1982.4 262.1L1982.4 297.2Q1982.4 302.9 1979.7 305.6Q1977.3 308 1971.6 308ZM1955.4 281L1955.4 278L1857.3 278L1857.3 200.3L1931.1 200.3L1931.1 197.3L1857.3 197.3L1857.3 122L1955.4 122L1955.4 119L1854.3 119L1854.3 281L1955.4 281ZM2145.6 308L2067.6 308Q2061.9 308 2058 305.9Q2054.4 303.8 2052.3 298.1L2022.9 224.6Q2020.2 218 2018.4 213.2Q2016.6 208.1 2015.4 203.6Q2014.2 199.1 2013.6 194.3Q2013.3 189.2 2013.3 182L2013.3 102.8Q2013.3 97.1 2015.7 94.7Q2018.4 92 2024.1 92L2071.8 92Q2077.5 92 2080.5 94.7Q2083.5 97.1 2083.5 102.8L2083.5 185.6Q2083.5 188.6 2084.1 191.6Q2084.7 194.6 2085.9 197.9L2100 239.9Q2100.9 242.9 2102.1 244.1Q2103.3 245 2105.7 245L2109 245Q2111.4 245 2112.6 244.1Q2113.8 242.9 2114.7 239.9L2128.8 197.6Q2130 194.3 2130.6 191.3Q2131.2 188.3 2131.2 185.3L2131.2 102.8Q2131.2 97.1 2133.6 94.7Q2136.3 92 2142 92L2189.1 92Q2194.8 92 2197.2 94.7Q2199.9 97.1 2199.9 102.8L2199.9 182Q2199.9 189.2 2199.3 194.3Q2199 199.1 2197.8 203.6Q2196.6 208.1 2194.8 213.2Q2193 218 2190.3 224.6L2160.9 298.1Q2158.8 303.8 2154.9 305.9Q2151.3 308 2145.6 308ZM2050.2 119L2047.2 119L2047.2 183.8Q2047.2 192.2 2048.1 199.4Q2049.3 206.3 2052 212.9L2071.8 260.9Q2075.4 269.6 2079.9 275.3Q2084.4 281 2093.7 281L2120.1 281Q2129.4 281 2133.9 275.3Q2138.4 269.6 2142 260.9L2161.8 212.9Q2164.5 206.3 2165.4 199.4Q2166.6 192.2 2166.6 183.8L2166.6 119L2163.6 119L2163.6 183.8Q2163.6 191.6 2162.4 198.8Q2161.2 205.7 2158.8 211.7L2139 259.7Q2136 267.5 2132.1 272.9Q2128.5 278 2120.1 278L2093.7 278Q2085.3 278 2081.4 272.9Q2077.8 267.5 2074.8 259.7L2055 211.7Q2052.6 205.7 2051.4 198.8Q2050.2 191.6 2050.2 183.8L2050.2 119ZM2467.8 308L2373.3 308Q2335.8 308 2317.5 293Q2299.5 278 2299.5 246.8L2299.5 153.2Q2299.5 122 2317.5 107Q2335.8 92 2373.3 92L2448.3 92Q2454 92 2456.4 94.7Q2459.1 97.1 2459.1 102.8L2459.1 139.1Q2459.1 144.8 2456.4 147.5Q2454 149.9 2448.3 149.9L2385.9 149.9Q2376.6 149.9 2372.1 153.8Q2367.6 157.4 2367.6 164.9L2367.6 236.6Q2367.6 244.1 2370.9 247.7Q2374.5 251.3 2381.4 251.3L2410.5 251.3L2410.5 204.5Q2410.5 198.8 2412.9 196.4Q2415.6 193.7 2421.3 193.7L2467.8 193.7Q2473.5 193.7 2475.9 196.4Q2478.6 198.8 2478.6 204.5L2478.6 297.2Q2478.6 302.9 2475.9 305.6Q2473.5 308 2467.8 308ZM2386.2 281L2445.9 281L2445.9 220.7L2442.9 220.7L2442.9 278L2386.2 278Q2355.9 278 2345.4 269.9Q2335.2 261.8 2335.2 242.3L2335.2 158.3Q2335.2 138.5 2344.5 130.4Q2353.8 122 2380.2 122L2432.1 122L2432.1 119L2380.2 119Q2351.4 119 2341.8 128Q2332.2 137 2332.2 158.3L2332.2 242.3Q2332.2 252.8 2334.3 260.3Q2336.7 267.5 2342.7 272.3Q2348.7 276.8 2359.2 278.9Q2369.7 281 2386.2 281ZM2545.5 226.4L2545.5 217.1Q2545.5 209 2546.7 202.1Q2548.2 195.2 2550.3 189.2L2569.5 140Q2572.5 132.5 2576.1 127.4Q2579.7 122 2588.7 122L2618.1 122Q2626.5 122 2630.1 127.4Q2633.7 132.5 2637 140.3L2657.7 189.2Q2659.8 195.2 2661 202.1Q2662.5 209 2662.5 217.1L2662.5 226.4L2545.5 226.4ZM2593.5 155L2579.4 200.6L2626.5 200.6L2612.4 155Q2611.2 152.3 2609.7 151.1Q2608.5 149.9 2606.7 149.9L2599.2 149.9Q2597.4 149.9 2595.9 151.1Q2594.7 152.3 2593.5 155ZM2662.5 229.4L2662.5 281L2665.5 281L2665.5 217.1Q2665.5 208.7 2664 201.8Q2662.8 194.6 2660.4 188L2639.7 139.1Q2636.1 130.4 2631.9 124.7Q2628 119 2618.1 119L2588.7 119Q2578.5 119 2574.3 124.7Q2570.1 130.4 2566.8 138.8L2547.6 188Q2545.2 194.6 2543.7 201.8Q2542.5 208.7 2542.5 217.1L2542.5 281L2545.5 281L2545.5 229.4L2662.5 229.4ZM2576.4 255.2L2576.4 297.2Q2576.4 302.9 2573.7 305.6Q2571.3 308 2565.6 308L2521.5 308Q2515.8 308 2513.1 305.6Q2510.7 302.9 2510.7 297.2L2510.7 218Q2510.7 209 2513.4 197.3Q2516.4 185.6 2522.4 170L2548.5 101.9Q2550.3 96.8 2553.9 94.4Q2557.8 92 2563.8 92L2644.5 92Q2650.2 92 2653.8 94.4Q2657.7 96.8 2659.5 101.9L2685.6 170Q2691.6 185.6 2694.3 197.3Q2697.3 209 2697.3 218L2697.3 297.2Q2697.3 302.9 2694.6 305.6Q2692.2 308 2686.5 308L2641.2 308Q2635.2 308 2632.2 305.6Q2629.5 302.9 2629.5 297.2L2629.5 255.2L2576.4 255.2ZM2839.8 192.5Q2834.4 192.5 2832 190.1Q2829.6 187.7 2824.5 179.9L2787.9 124.1Q2786.1 121.1 2783.7 120.2Q2781.3 119 2778.9 119L2773.8 119Q2769.9 119 2767.8 121.4Q2766 123.5 2766 128.3L2766 281L2769 281L2769 128.3Q2769 125.9 2769.9 124.1Q2770.8 122 2773.8 122L2778.3 122Q2780.4 122 2781.9 122.6Q2783.7 123.2 2785.5 126.2L2822.1 181.4Q2827.5 189.5 2830.2 192.5Q2833.2 195.5 2839.8 195.5Q2846.4 195.5 2849.1 192.5Q2852.1 189.5 2857.5 181.4L2894.1 126.2Q2895.9 123.2 2897.4 122.6Q2898.9 122 2901 122L2905.5 122Q2908.5 122 2909.4 124.1Q2910.6 125.9 2910.6 128.3L2910.6 281L2913.6 281L2913.6 128.3Q2913.6 123.5 2911.5 121.4Q2909.7 119 2905.5 119L2900.4 119Q2898 119 2895.6 120.2Q2893.5 121.1 2891.7 124.1L2855.1 179.9Q2850 187.7 2847.6 190.1Q2845.2 192.5 2839.8 192.5ZM2789.7 308L2745 308Q2739.3 308 2736.6 305.6Q2734.2 302.9 2734.2 297.2L2734.2 102.8Q2734.2 97.1 2736.6 94.7Q2739.3 92 2745 92L2793.3 92Q2798.1 92 2801.1 94.1Q2804.4 96.2 2807.1 101L2834.1 149.9Q2835.6 152.6 2836.5 153.8Q2837.7 155 2839.5 155L2842.2 155Q2844 155 2844.9 153.8Q2846.1 152.6 2847.6 149.9L2874.3 101Q2877 96.2 2880 94.1Q2883.3 92 2888.1 92L2936.7 92Q2942.4 92 2944.8 94.7Q2947.5 97.1 2947.5 102.8L2947.5 297.2Q2947.5 302.9 2944.8 305.6Q2942.4 308 2936.7 308L2890.5 308Q2884.8 308 2882.1 305.6Q2879.7 302.9 2879.7 297.2L2879.7 191.6L2862 224.3Q2859.3 229.4 2855.4 231.8Q2851.8 233.9 2846.1 233.9L2834.1 233.9Q2828.4 233.9 2824.5 231.8Q2820.9 229.4 2818.2 224.3L2800.5 191.6L2800.5 297.2Q2800.5 302.9 2797.8 305.6Q2795.4 308 2789.7 308ZM3138.9 308L2999.7 308Q2994 308 2991.3 305.6Q2988.9 302.9 2988.9 297.2L2988.9 102.8Q2988.9 97.1 2991.3 94.7Q2994 92 2999.7 92L3138.9 92Q3144.6 92 3147 94.7Q3149.7 97.1 3149.7 102.8L3149.7 137.9Q3149.7 143.6 3147 146.3Q3144.6 148.7 3138.9 148.7L3056.1 148.7L3056.1 171.8L3114.6 171.8Q3120.3 171.8 3122.7 174.5Q3125.4 176.9 3125.4 182.6L3125.4 214.7Q3125.4 220.4 3122.7 223.1Q3120.3 225.5 3114.6 225.5L3056.1 225.5L3056.1 251.3L3138.9 251.3Q3144.6 251.3 3147 254Q3149.7 256.4 3149.7 262.1L3149.7 297.2Q3149.7 302.9 3147 305.6Q3144.6 308 3138.9 308ZM3122.7 281L3122.7 278L3024.6 278L3024.6 200.3L3098.4 200.3L3098.4 197.3L3024.6 197.3L3024.6 122L3122.7 122L3122.7 119L3021.6 119L3021.6 281L3122.7 281Z" />
</svg>